<?xml version="1.0" ?><!DOCTYPE svg  PUBLIC '-//W3C//DTD SVG 1.1//EN'  'http://www.w3.org/Graphics/SVG/1.1/DTD/svg11.dtd'><svg enable-background="new 0 0 64 64" height="64px" id="Layer_1" version="1.1" viewBox="0 0 64 64" width="64px" xml:space="preserve" xmlns="http://www.w3.org/2000/svg" xmlns:xlink="http://www.w3.org/1999/xlink"><g><g><path d="M61.899,32.321c0-16.099-13.235-29.154-29.57-29.154c-1.721,0-3.41,0.148-5.057,0.428    C24.629,1.953,21.502,1,18.15,1C8.677,1,1,8.568,1,17.911c0,3.12,0.862,6.038,2.355,8.554c-0.39,1.89-0.598,3.853-0.598,5.856    c0,16.107,13.24,29.159,29.571,29.159c1.852,0,3.659-0.169,5.417-0.489C40.161,62.271,42.918,63,45.853,63    C55.323,63,63,55.429,63,46.092c0-2.698-0.641-5.247-1.782-7.509C61.666,36.562,61.899,34.471,61.899,32.321z M47.497,46.258    c-1.367,1.912-3.386,3.422-6.011,4.493c-2.593,1.063-5.698,1.605-9.237,1.605c-4.248,0-7.808-0.737-10.59-2.192    c-1.987-1.056-3.624-2.486-4.867-4.262c-1.257-1.782-1.891-3.555-1.891-5.269c0-1.063,0.414-1.99,1.23-2.749    c0.81-0.754,1.849-1.132,3.088-1.132c1.014,0,1.893,0.299,2.604,0.892c0.682,0.571,1.265,1.416,1.734,2.497    c0.526,1.187,1.094,2.186,1.695,2.965c0.584,0.762,1.418,1.398,2.483,1.897c1.07,0.496,2.519,0.755,4.294,0.755    c2.445,0,4.449-0.518,5.957-1.531c1.475-0.988,2.189-2.181,2.189-3.641c0-1.146-0.375-2.052-1.139-2.763    c-0.812-0.74-1.872-1.315-3.159-1.719c-1.345-0.409-3.167-0.858-5.424-1.325c-3.072-0.646-5.68-1.412-7.75-2.285    c-2.122-0.889-3.83-2.12-5.081-3.662c-1.269-1.571-1.915-3.537-1.915-5.847c0-2.2,0.676-4.188,2.009-5.897    c1.32-1.699,3.252-3.029,5.741-3.932c2.454-0.895,5.369-1.348,8.677-1.348c2.639,0,4.962,0.303,6.902,0.898    c1.948,0.598,3.589,1.402,4.879,2.397c1.301,1.006,2.271,2.074,2.876,3.188c0.612,1.125,0.926,2.243,0.926,3.325    c0,1.041-0.407,1.989-1.213,2.812c-0.808,0.833-1.834,1.254-3.037,1.254c-1.094,0-1.953-0.266-2.544-0.784    c-0.555-0.484-1.13-1.24-1.768-2.318c-0.737-1.379-1.632-2.468-2.654-3.237c-0.996-0.747-2.655-1.121-4.94-1.121    c-2.114,0-3.842,0.417-5.121,1.247c-1.232,0.794-1.834,1.71-1.834,2.795c0,0.662,0.194,1.218,0.595,1.694    c0.416,0.51,1.009,0.947,1.761,1.321c0.776,0.385,1.579,0.693,2.38,0.909c0.821,0.227,2.198,0.561,4.091,0.991    c2.396,0.503,4.594,1.075,6.535,1.689c1.973,0.618,3.671,1.38,5.063,2.274c1.415,0.91,2.534,2.074,3.331,3.469    c0.8,1.404,1.205,3.129,1.205,5.139C49.568,42.154,48.868,44.342,47.497,46.258z" fill="#24AEF0"/></g><g><path d="M12.562,53.986c0.181,0.16,0.355,0.325,0.54,0.481c-0.632-0.752-1.294-1.575-1.962-2.442    C11.61,52.701,12.087,53.357,12.562,53.986z" fill="#22D5FF"/><path d="M25.21,53.716c2.783,1.455,6.345,2.191,10.59,2.191c3.541,0,6.646-0.542,9.237-1.605    c2.627-1.07,4.646-2.58,6.013-4.492c1.37-1.916,2.07-4.104,2.07-6.504c0-2.01-0.404-3.734-1.203-5.14    c-0.799-1.395-1.918-2.558-3.332-3.468c-0.085-0.055-0.182-0.104-0.271-0.158c0.016,0.025,0.035,0.048,0.049,0.075    c0.8,1.404,1.205,3.129,1.205,5.139c0,2.4-0.7,4.588-2.071,6.504c-1.367,1.912-3.386,3.422-6.011,4.493    c-2.593,1.063-5.698,1.605-9.237,1.605c-4.248,0-7.808-0.737-10.59-2.192c-0.491-0.261-0.961-0.546-1.408-0.852    c0.032,0.048,0.061,0.094,0.094,0.141C21.588,51.229,23.224,52.66,25.21,53.716z" fill="#22D5FF"/></g><g><path d="M27.736,45.004c1.07,0.496,2.519,0.755,4.294,0.755c2.445,0,4.449-0.518,5.957-1.531    c1.475-0.988,2.189-2.181,2.189-3.641c0-1.146-0.375-2.052-1.139-2.763c-0.316-0.287-0.678-0.542-1.065-0.778    c-3.63,2.95-7.955,5.074-12.692,6.091C25.863,43.884,26.687,44.513,27.736,45.004z" fill="#0B97CE"/><path d="M61.218,38.583c0.448-2.021,0.682-4.112,0.682-6.262c0-10.148-5.264-19.085-13.244-24.306    c0.331,1.794,0.513,3.639,0.513,5.529c0,6.291-1.921,12.134-5.205,16.975c0.374,0.201,0.732,0.409,1.069,0.627    c1.415,0.91,2.534,2.074,3.331,3.469c0.8,1.404,1.205,3.129,1.205,5.139c0,2.4-0.7,4.588-2.071,6.504    c-1.367,1.912-3.386,3.422-6.011,4.493c-2.593,1.063-5.698,1.605-9.237,1.605c-4.248,0-7.808-0.737-10.59-2.192    c-1.987-1.056-3.624-2.486-4.867-4.262c-0.537-0.762-0.953-1.521-1.262-2.275c-4.265-0.471-8.261-1.832-11.805-3.888    C7.054,52.252,18.598,61.48,32.329,61.48c1.852,0,3.659-0.169,5.417-0.489C40.161,62.271,42.918,63,45.853,63    C55.323,63,63,55.429,63,46.092C63,43.395,62.359,40.846,61.218,38.583z" fill="#0798D8"/></g><path d="M61.435,37.466c-4.32,10.632-12.662,19.191-23.144,23.793C40.574,62.369,43.136,63,45.853,63   C55.323,63,63,55.429,63,46.092c0-2.698-0.641-5.247-1.782-7.509C61.3,38.214,61.366,37.839,61.435,37.466z" fill="#0D83CC"/><g><path d="M35.937,3.755c2.808,0.354,5.443,0.932,7.807,1.667c-3.512-1.451-7.367-2.255-11.414-2.255    c-1.297,0-2.576,0.085-3.833,0.245C30.82,3.325,33.329,3.427,35.937,3.755z" fill="#22D5FF"/><path d="M54.567,13.123c0.016,0.077,0.044,0.154,0.056,0.232c0.158,0.129,0.327,0.244,0.484,0.376    C54.933,13.523,54.748,13.326,54.567,13.123z" fill="#22D5FF"/><path d="M19.928,3.422c1.364,0,2.688,0.166,3.962,0.464c1.009-0.176,2.081-0.307,3.209-0.39    C24.492,1.917,21.43,1,18.15,1C8.677,1,1,8.568,1,17.911c0,3.12,0.862,6.038,2.355,8.554c-0.39,1.89-0.598,3.853-0.598,5.856    c0,0.471,0.014,0.937,0.036,1.402c0.431-2.119,1.125-3.979,2.011-5.43c-1.287-2.377-2.029-5.081-2.029-7.961    C2.775,10.99,10.454,3.422,19.928,3.422z" fill="#22D5FF"/></g></g></svg>