<?xml version="1.0" standalone="no"?>
<!DOCTYPE svg PUBLIC "-//W3C//DTD SVG 20010904//EN"
 "http://www.w3.org/TR/2001/REC-SVG-20010904/DTD/svg10.dtd">
<svg version="1.0" xmlns="http://www.w3.org/2000/svg"
 width="500.000000pt" height="500.000000pt" viewBox="0 0 500.000000 500.000000"
 preserveAspectRatio="xMidYMid meet">

<g transform="translate(0.000000,500.000000) scale(0.100000,-0.100000)"
fill="#000000" stroke="none">
<path d="M1110 3738 l0 -413 85 85 85 85 0 242 0 243 243 0 243 0 90 85 89 84
-417 1 -418 0 0 -412z"/>
<path d="M3160 4065 l85 -85 242 0 243 0 0 -243 0 -242 85 -85 85 -85 0 413 0
412 -412 0 -413 0 85 -85z"/>
<path d="M1660 3425 l0 -405 405 0 405 0 0 405 0 405 -405 0 -405 0 0 -405z
m523 133 c39 -19 42 -25 28 -47 -7 -11 -16 -10 -53 8 -55 26 -80 26 -133 1
-51 -24 -75 -65 -75 -124 0 -105 125 -168 218 -109 13 8 30 12 38 9 25 -10 15
-32 -27 -55 -49 -28 -131 -31 -175 -8 -154 80 -132 299 33 342 55 15 92 10
146 -17z"/>
<path d="M2510 3205 l0 -405 405 0 405 0 0 405 0 405 -405 0 -405 0 0 -405z
m498 126 c126 -64 128 -252 3 -318 -38 -20 -59 -23 -143 -23 l-98 0 0 186 0
187 98 -6 c72 -3 110 -11 140 -26z"/>
<path d="M2820 3170 l0 -143 69 5 c109 8 161 53 161 138 0 85 -52 130 -161
138 l-69 5 0 -143z"/>
<path d="M1660 2575 l0 -405 405 0 405 0 0 405 0 405 -405 0 -405 0 0 -405z
m490 186 c121 -65 134 -224 24 -308 -48 -36 -150 -44 -203 -16 -105 55 -134
194 -58 280 17 20 45 42 62 49 45 20 134 17 175 -5z"/>
<path d="M1995 2720 c-23 -11 -48 -33 -58 -49 -22 -37 -22 -105 0 -142 19 -31
85 -69 121 -69 34 0 84 24 112 55 21 22 25 37 25 85 0 48 -4 63 -25 85 -28 31
-78 55 -112 55 -13 0 -41 -9 -63 -20z"/>
<path d="M2510 2355 l0 -405 405 0 405 0 0 405 0 405 -405 0 -405 0 0 -405z
m540 195 c0 -19 -7 -20 -100 -20 l-100 0 0 -55 0 -55 90 0 c89 0 90 0 90 -25
0 -25 -1 -25 -90 -25 l-90 0 0 -60 0 -60 105 0 c98 0 105 -1 105 -20 0 -19 -7
-20 -130 -20 l-130 0 0 180 0 180 125 0 c118 0 125 -1 125 -20z"/>
<path d="M2021 1825 c-46 -42 -73 -44 -108 -9 -18 18 -29 22 -36 15 -13 -13
15 -46 56 -67 l27 -15 -29 -42 c-16 -23 -47 -66 -70 -94 l-40 -51 -50 16 c-68
21 -101 8 -101 -42 0 -25 6 -38 19 -46 29 -15 72 -12 106 8 26 16 34 17 69 5
26 -10 47 -11 65 -5 17 6 32 5 42 -1 13 -8 23 -6 42 5 22 15 25 15 41 0 16
-16 19 -16 46 0 24 14 29 14 34 2 7 -17 37 -18 55 -1 11 10 14 10 18 0 3 -7
18 -13 35 -13 24 0 42 13 90 63 33 34 59 58 57 52 -3 -5 -13 -26 -23 -47 -10
-20 -16 -43 -13 -52 7 -17 52 -22 62 -6 4 6 13 5 25 -2 14 -9 25 -9 46 1 19 8
30 9 38 1 5 -5 17 -10 27 -10 21 0 109 77 109 96 0 23 -14 16 -60 -28 -26 -24
-46 -36 -48 -29 -2 7 3 20 12 30 18 20 21 41 5 41 -6 0 -31 -18 -57 -40 -25
-22 -47 -38 -50 -35 -9 8 48 75 78 90 36 19 40 19 40 0 0 -8 7 -15 16 -15 20
0 15 39 -7 53 -24 15 -103 -27 -136 -73 -29 -40 -61 -65 -71 -56 -3 3 9 23 26
45 30 38 31 39 12 56 -10 9 -16 23 -14 30 12 31 -17 22 -42 -12 -35 -49 -106
-123 -116 -123 -14 0 -9 21 13 51 12 17 18 37 15 46 -5 12 -19 2 -61 -43 -58
-63 -71 -60 -30 7 42 66 17 65 -46 -2 -57 -61 -93 -77 -50 -23 37 47 8 52 -44
9 -25 -20 -48 -35 -50 -33 -10 10 36 66 66 81 29 14 34 14 37 2 4 -17 28 -20
36 -6 9 15 -4 40 -25 46 -29 10 -87 -24 -131 -76 -36 -43 -46 -49 -79 -49 -21
0 -40 3 -42 8 -3 4 29 53 70 110 66 89 78 102 104 102 44 0 98 26 108 52 25
65 -54 81 -118 23z m89 -4 c0 -13 -22 -29 -53 -36 -33 -9 -35 0 -4 26 23 19
57 25 57 10z m-341 -276 c24 -7 24 -8 6 -21 -22 -17 -61 -18 -70 -4 -11 18 4
42 22 36 10 -2 29 -8 42 -11z"/>
<path d="M2770 1842 c0 -10 11 -29 24 -41 13 -12 26 -34 29 -49 3 -15 26 -48
51 -74 54 -56 58 -85 19 -127 -41 -44 -99 -46 -140 -5 -21 21 -25 32 -20 64 3
22 15 53 27 70 24 33 20 51 -8 34 -27 -17 -52 -75 -52 -122 0 -36 6 -49 31
-73 82 -77 219 -24 219 86 0 37 -5 48 -45 86 -58 56 -58 67 3 62 38 -4 54 0
81 19 47 32 58 52 42 72 -20 24 -79 19 -139 -11 l-52 -26 -28 26 c-33 32 -42
34 -42 9z m230 -20 c0 -9 -33 -27 -67 -37 -36 -10 -37 14 -1 30 37 16 68 19
68 7z"/>
<path d="M3105 1766 c-58 -63 -113 -147 -137 -208 -31 -83 -8 -90 72 -20 34
29 51 40 46 27 -26 -62 -10 -89 38 -67 12 5 34 8 49 5 l26 -5 -41 -32 c-52
-39 -67 -61 -51 -77 20 -20 62 0 94 44 17 23 42 48 57 56 54 27 102 84 82 96
-5 3 -21 -8 -36 -25 -36 -40 -51 -38 -25 4 12 18 21 38 21 45 0 23 -30 10 -56
-24 -32 -43 -67 -66 -57 -38 3 10 15 30 25 45 22 31 22 38 4 38 -8 0 -30 -22
-50 -49 -20 -27 -43 -52 -51 -55 -13 -5 -13 -1 0 31 30 71 -6 84 -73 27 -23
-19 -42 -33 -42 -30 0 18 25 56 37 56 8 0 38 24 68 54 38 38 56 64 61 90 11
63 -9 67 -61 12z m5 -56 c-22 -31 -49 -54 -35 -29 10 17 47 59 52 59 3 0 -5
-13 -17 -30z"/>
<path d="M3812 1567 l-82 -82 0 -248 0 -247 -248 0 -247 0 -80 -80 -80 -80
413 0 412 0 0 410 c0 226 -1 410 -3 410 -1 0 -39 -37 -85 -83z"/>
<path d="M1120 1237 l0 -407 407 0 408 0 -80 80 -80 80 -247 0 -248 0 0 248 0
247 -80 80 -80 80 0 -408z"/>
<path d="M1410 1363 c0 -5 7 -45 16 -91 19 -92 35 -102 46 -28 9 66 15 67 23
2 11 -83 29 -71 47 32 9 48 15 89 13 91 -9 9 -25 -13 -26 -37 -1 -15 -4 -38
-8 -52 -7 -21 -9 -17 -17 29 -12 74 -30 76 -39 4 -9 -61 -12 -58 -30 30 -5 24
-25 40 -25 20z"/>
<path d="M1640 1280 l0 -90 45 0 c25 0 45 5 45 10 0 6 -13 10 -30 10 -27 0
-30 3 -30 30 0 23 4 30 20 30 11 0 20 5 20 10 0 6 -9 10 -20 10 -16 0 -20 7
-20 30 0 27 3 30 30 30 17 0 30 5 30 10 0 6 -20 10 -45 10 l-45 0 0 -90z"/>
<path d="M1820 1280 l0 -90 29 0 c40 0 64 26 56 59 -8 34 -8 42 0 67 9 28 -18
54 -56 54 l-29 0 0 -90z m55 40 c0 -16 -6 -26 -17 -28 -14 -3 -18 3 -18 28 0
25 4 31 18 28 11 -2 17 -12 17 -28z m8 -62 c6 -19 -11 -48 -28 -48 -10 0 -15
10 -15 30 0 23 5 30 19 30 11 0 21 -6 24 -12z"/>
<path d="M2110 1280 l0 -90 29 0 c46 0 61 23 61 90 0 67 -15 90 -61 90 l-29 0
0 -90z m60 51 c22 -42 6 -121 -25 -121 -12 0 -15 15 -15 70 0 55 3 70 15 70 8
0 19 -9 25 -19z"/>
<path d="M2290 1280 l0 -90 45 0 c52 0 61 17 13 22 -26 2 -34 8 -36 26 -3 17
2 25 17 29 12 3 21 9 21 13 0 4 -9 10 -21 13 -15 4 -20 12 -17 29 2 18 10 24
36 26 48 5 39 22 -13 22 l-45 0 0 -90z"/>
<path d="M2460 1363 c0 -5 7 -45 16 -90 11 -55 21 -83 30 -83 8 0 14 3 14 8 0
4 9 44 19 90 15 65 16 82 6 82 -9 0 -16 -18 -21 -47 -12 -82 -20 -93 -28 -38
-9 66 -15 85 -27 85 -5 0 -9 -3 -9 -7z"/>
<path d="M2640 1280 l0 -90 45 0 c25 0 45 5 45 10 0 6 -13 10 -30 10 -27 0
-30 3 -30 30 0 23 4 30 20 30 11 0 20 5 20 10 0 6 -9 10 -20 10 -16 0 -20 7
-20 30 0 27 3 30 30 30 17 0 30 5 30 10 0 6 -20 10 -45 10 l-45 0 0 -90z"/>
<path d="M2820 1280 l0 -90 40 0 c22 0 40 5 40 10 0 6 -13 10 -30 10 l-30 0 0
80 c0 47 -4 80 -10 80 -6 0 -10 -37 -10 -90z"/>
<path d="M2992 1358 c-16 -16 -16 -140 0 -156 7 -7 21 -12 33 -12 35 0 45 20
45 90 0 70 -10 90 -45 90 -12 0 -26 -5 -33 -12z m53 -78 c0 -58 -2 -65 -20
-65 -17 0 -20 8 -23 54 -4 65 2 84 25 79 15 -3 18 -14 18 -68z"/>
<path d="M3160 1280 c0 -53 4 -90 10 -90 6 0 10 16 10 35 0 25 5 37 18 41 36
11 47 22 50 48 5 37 -14 56 -54 56 l-34 0 0 -90z m65 40 c0 -18 -6 -26 -22
-28 -18 -3 -23 1 -23 21 0 28 9 39 30 35 9 -2 15 -14 15 -28z"/>
<path d="M3340 1280 l0 -90 40 0 c22 0 40 5 40 10 0 6 -13 10 -30 10 -27 0
-30 3 -30 30 0 23 4 30 20 30 11 0 20 5 20 10 0 6 -9 10 -20 10 -16 0 -20 7
-20 30 0 27 3 30 30 30 17 0 30 5 30 10 0 6 -18 10 -40 10 l-40 0 0 -90z"/>
<path d="M3510 1280 c0 -88 16 -126 22 -53 4 50 22 52 37 3 6 -22 16 -40 21
-40 13 0 13 10 -1 49 -9 24 -9 35 0 44 15 15 14 60 -1 75 -7 7 -27 12 -45 12
l-33 0 0 -90z m65 40 c0 -18 -6 -26 -22 -28 -18 -3 -23 1 -23 21 0 28 9 39 30
35 9 -2 15 -14 15 -28z"/>
</g>
</svg>
